<svg data-v-0dd9719b="" version="1.0" xmlns="http://www.w3.org/2000/svg" xmlns:xlink="http://www.w3.org/1999/xlink" width="100%" height="100%" viewBox="0 0 340.000000 250.000000" preserveAspectRatio="xMidYMid meet" color-interpolation-filters="sRGB" style="margin: auto;"> <rect data-v-0dd9719b="" x="0" y="0" width="100%" height="100%" fill="#ffffff" fill-opacity="1" class="background"></rect> <rect data-v-0dd9719b="" x="0" y="0" width="100%" height="100%" fill="url(#watermark)" fill-opacity="1" class="watermarklayer"></rect> <g data-v-0dd9719b="" fill="#133359" class="icon-text-wrapper icon-svg-group iconsvg" transform="translate(47.70500183105469,97.4331226348877)"><g class="iconsvg-imagesvg" transform="translate(0,1.6619148254394531)"><g><rect fill="#133359" fill-opacity="0" stroke-width="2" x="0" y="0" width="60" height="52.809928266514106" class="image-rect"></rect> <svg x="0" y="0" width="60" height="52.809928266514106" filtersec="colorsb8392926026" class="image-svg-svg primary" style="overflow: visible;"><svg xmlns="http://www.w3.org/2000/svg" viewBox="0 0 76.44000244140625 67.27999877929688"><title>资源 13</title><path fill="#fbbb11" d="M35.02 0v22.87L0 45.26V22.02L35.02 0z"></path><path fill="#133359" d="M41.42 67.28V44.41l35.02-22.39v23.24L41.42 67.28z"></path><path fill="#133359" d="M41.42 0v22.87l35.02 22.39V22.02L41.42 0z"></path><path fill="#f58020" d="M35.02 67.28V44.41L0 22.02v23.24l35.02 22.02z"></path></svg></svg> <!----></g></g> <g transform="translate(67,0)"><g data-gra="path-name" fill-rule="" class="tp-name iconsvg-namesvg" transform="translate(0,0)"><g transform="scale(1)"><g><path d="M42.28-23.33L42.28-23.33 24.57-23.33Q27.42-8.35 43.95-1.67L43.95-1.67 43.86-1.19Q39.73-0.44 39.02 4.04L39.02 4.04Q26.5-3.56 23.95-22.28L23.95-22.28Q23.51-18.85 22.7-16.02 21.88-13.18 20.26-10.24 18.63-7.29 16.26-4.88 13.89-2.46 10.22-0.15 6.55 2.15 1.76 4.04L1.76 4.04 1.36 3.38Q5.93 0.62 9.14-2.48 12.35-5.58 14.22-9.03 16.08-12.48 17.03-15.84 17.97-19.2 18.37-23.33L18.37-23.33 2.11-23.33 1.76-24.65 18.46-24.65Q18.72-28.26 18.72-38.06L18.72-38.06 26.28-37.35Q26.06-36.25 24.65-36.04L24.65-36.04Q24.48-27.64 24.21-24.65L24.21-24.65 34.32-24.65 37.66-28.74Q41.31-26.02 43.55-24.08L43.55-24.08Q43.33-23.33 42.28-23.33ZM64.2-29.27L59.11-29.27 58.71-30.54 64.64-30.54Q66.58-35.64 67.19-38.14L67.19-38.14 73.83-36.17Q73.34-35.16 71.89-35.33L71.89-35.33Q71.72-34.76 71.43-33.99 71.15-33.22 70.75-32.21 70.36-31.2 70.14-30.54L70.14-30.54 79.1-30.54 81.96-34.45Q85.3-31.82 87.23-29.97L87.23-29.97Q87.06-29.27 85.96-29.27L85.96-29.27 69.65-29.27Q66.84-21.93 65.96-19.78L65.96-19.78 71.02-19.78 71.02-26.72 77.92-26.1Q77.74-25.05 76.25-24.83L76.25-24.83 76.25-19.78 78.27-19.78 80.9-23.29Q83.94-20.87 85.69-19.2L85.69-19.2Q85.52-18.5 84.46-18.5L84.46-18.5 76.25-18.5 76.25-11.73 80.42-11.73 83.14-15.42Q86.26-12.92 88.15-11.16L88.15-11.16Q87.98-10.46 86.88-10.46L86.88-10.46 76.25-10.46 76.25-3.56Q76.25-3.34 75.61-3.01 74.97-2.68 73.92-2.42 72.86-2.15 71.94-2.15L71.94-2.15 71.02-2.15 71.02-10.46 58.62-10.46 58.27-11.73 71.02-11.73 71.02-18.5 65.79-18.5 63.72-16.22 58.84-19.47Q59.63-20.08 60.64-20.57L60.64-20.57Q62.14-23.64 64.2-29.27L64.2-29.27ZM47.99-37.05L47.99-37.05 48.43-37.27Q54.93-35.29 56.69-31.51L56.69-31.51Q57.74-29.22 56.51-27.64L56.51-27.64Q55.37-26.19 53.53-26.94L53.53-26.94Q53.04-27.16 52.6-27.47L52.6-27.47Q51.77-31.82 47.99-37.05ZM56.47-19.86L56.47-19.86 56.47-5.71Q59.15-3.12 63.19-2.18 67.24-1.23 74.62-1.23L74.62-1.23Q82.92-1.23 88.99-1.54L88.99-1.54 88.99-1.01Q87.54-0.7 86.66 0.48 85.78 1.67 85.61 3.3L85.61 3.3 72.99 3.3Q66.18 3.3 62.47 1.63 58.75-0.04 55.81-4.17L55.81-4.17Q54.98-5.36 54.23-4.17L54.23-4.17Q54.14-4 52.4-1.23 50.67 1.54 49.88 3.03L49.88 3.03Q50.05 3.56 49.44 4.04L49.44 4.04 45.97-1.14Q47.55-2.11 51.46-4.66L51.46-4.66 51.46-20.57 46.63-20.57 46.36-21.88 50.76-21.88 53.31-25.18 58.75-20.83Q58.14-20.17 56.47-19.86ZM108.68-13.45L102.26-13.45 102.26-4.79Q106.61-6.77 108.46-7.69L108.46-7.69 108.68-7.29Q105.25-2.94 100.46 1.8L100.46 1.8Q100.15 2.68 99.54 3.3L99.54 3.3 94.88-1.54Q96.42-2.68 96.83-3.16 97.25-3.65 97.25-4.31L97.25-4.31 97.25-13.45 91.93-13.45 91.63-14.72 97.25-14.72 97.25-22.32 95.05-22.32 94.88-22.9Q93.3-21.09 91.63-19.64L91.63-19.64 91.14-20Q93.12-23.47 94.77-28.83 96.42-34.19 96.86-38.1L96.86-38.1 103.84-35.99Q103.62-35.07 102.04-35.02L102.04-35.02Q101.51-33.4 100.5-31.29L100.5-31.29 103.27-31.29 105.69-34.54Q108.41-32.26 110.04-30.67L110.04-30.67Q109.91-29.97 108.81-29.97L108.81-29.97 99.76-29.97Q97.87-26.46 95.45-23.6L95.45-23.6 101.91-23.6 104.37-26.89Q107.09-24.61 108.68-23.03L108.68-23.03Q108.5-22.32 107.45-22.32L107.45-22.32 102.26-22.32 102.26-14.72 103.23-14.72 105.6-18.11Q108.28-15.82 109.91-14.19L109.91-14.19Q109.69-13.45 108.68-13.45L108.68-13.45ZM126.12-0.53L126.12-12.52 117.33-12.52 117.33-0.53 126.12-0.53ZM125.64-31.95L128.63-34.76 133.37-30.45Q133.02-29.88 131.44-29.75L131.44-29.75Q126.61-19.73 117.29-13.84L117.29-13.84 117.55-13.75 125.68-13.75 128.01-16.35 132.93-12.61Q132.28-11.87 131.09-11.69L131.09-11.69 131.09 2.02Q131.04 2.33 129.57 2.81 128.1 3.3 126.96 3.3L126.96 3.3 126.12 3.3 126.12 0.7 117.33 0.7 117.33 2.37Q117.33 2.59 116.72 2.97 116.1 3.34 115.07 3.63 114.04 3.91 113.07 3.91L113.07 3.91 112.37 3.91 112.37-11.21Q109.07-9.76 106.44-8.96L106.44-8.96 106.08-9.54Q109.64-11.38 112.37-13.45L112.37-13.45 112.37-15.86 114.35-15.07Q122.26-21.67 125.68-30.63L125.68-30.63 117.11-30.63Q115.75-28.08 114.35-26.24L114.35-26.24Q118.65-25.53 119.44-23.03L119.44-23.03Q120.01-21.31 118.74-20.21L118.74-20.21Q117.38-18.98 115.53-20.17L115.53-20.17Q115.27-22.37 113.25-24.74L113.25-24.74Q110.61-21.36 107.97-19.34L107.97-19.34 107.49-19.64Q109.69-22.85 111.53-28.1 113.38-33.35 114.26-38.23L114.26-38.23 121.46-36.87Q121.25-36.08 119.75-36.12L119.75-36.12Q119.27-34.89 117.82-31.95L117.82-31.95 125.64-31.95ZM155.04-20.39L155.04-25.09 149.37-25.09Q151.39-24.52 152.27-23.55 153.15-22.59 152.93-21.73 152.71-20.87 151.83-20.39L151.83-20.39 155.04-20.39ZM163.3-25.09L163.3-25.09 159.87-25.09 159.87-20.39 161.76-20.39Q162.77-23.2 163.3-25.09ZM142.91-12.08L147.92-12.08 149.72-14.15Q151.61-12.83 153.02-11.69L153.02-11.69Q151.57-14.28 148.01-16.88L148.01-16.88Q145.99-14.37 142.91-12.08L142.91-12.08ZM178.95-13.67L178.95-13.67 178.9-13.05Q177.85-12.74 177.14-11.78 176.44-10.81 176.35-9.58L176.35-9.58Q173.41-10.72 170.97-12.7 168.53-14.68 167.26-17.09L167.26-17.09Q165.45-14.63 161.72-12.22L161.72-12.22 167.17-12.22 168.79-13.97Q170.68-12.7 171.91-11.6L171.91-11.6Q171.78-10.9 170.77-10.9L170.77-10.9 168.13-10.9 168.13-7.51 170.51-7.51 172.62-10.06Q174.99-8.35 176.48-6.99L176.48-6.99Q176.26-6.24 175.34-6.24L175.34-6.24 168.13-6.24 168.13 0.83 168.88 0.83Q170.02-2.94 170.51-5.89L170.51-5.89 175.39-4.44Q175.08-3.56 173.85-3.6L173.85-3.6Q172.75-2.02 169.98 0.83L169.98 0.83 172.27 0.83 174.51-1.98Q177.14 0 178.73 1.45L178.73 1.45Q178.55 2.15 177.58 2.15L177.58 2.15 153.94 2.15 153.59 0.83 163.56 0.83 163.56-6.24 156.84-6.24 156.45-7.51 163.56-7.51 163.56-10.9 160.36-10.9 160.22-11.25Q156.97-9.4 154.29-8.57L154.29-8.57 153.94-9.14Q156.97-10.94 159.81-13.82 162.64-16.7 163.65-19.12L163.65-19.12 145.11-19.12 150.25-18.11Q150.12-17.58 149.41-17.36L149.41-17.36Q154.78-16.61 155.83-14.15L155.83-14.15Q156.49-12.74 155.35-11.82L155.35-11.82Q154.34-10.99 153.02-11.73L153.02-11.73 153.24-11.56Q153.11-10.85 152.09-10.85L152.09-10.85 148.93-10.85 148.93-7.87 150.29-7.87 152.18-10.37Q154.29-8.61 155.52-7.34L155.52-7.34Q155.35-6.64 154.38-6.64L154.38-6.64 148.93-6.64 148.93-1.05 149.63-1.1Q150.69-4.57 151.08-6.33L151.08-6.33 155.79-4.97Q155.48-4.04 154.16-4.04L154.16-4.04Q152.71-2.5 151.26-1.23L151.26-1.23 155.87-1.63 155.96-0.88Q153.15-0.09 140.19 2.64L140.19 2.64Q139.88 3.34 139.13 3.6L139.13 3.6 136.85-0.22Q138.78-0.31 144.84-0.7L144.84-0.7 144.84-6.64 138.43-6.64 138.08-7.87 144.84-7.87 144.84-10.85 142.03-10.85 141.9-11.34Q138.82-9.27 136.41-8.35L136.41-8.35 136.01-8.83Q138.43-10.81 140.6-13.67 142.78-16.52 143.92-19.12L143.92-19.12 139.09-19.12 138.69-20.39 149.37-20.39Q148.71-20.79 148.62-20.87L148.62-20.87Q148.67-23.12 147.39-25.09L147.39-25.09 142.82-25.09 142.47-26.41 155.04-26.41 155.04-28.74 149.33-28.74 148.97-29.97Q142.69-27.25 136.76-26.19L136.76-26.19 136.63-26.76Q142.16-28.74 147.22-32.1 152.27-35.46 154.56-38.63L154.56-38.63 161.1-36.69Q160.93-35.86 158.99-35.68L158.99-35.68Q166.51-32.34 178.68-32.21L178.68-32.21 178.68-31.51Q176.22-30.67 175.78-26.98L175.78-26.98Q164.14-29.36 158.29-35.24L158.29-35.24Q154.78-32.52 149.24-30.06L149.24-30.06 159.61-30.06 161.46-32.12Q163.52-30.67 164.88-29.49L164.88-29.49Q164.75-28.74 163.7-28.74L163.7-28.74 159.87-28.74 159.87-26.41 165.32-26.41 167.48-29Q169.94-27.2 171.52-25.84L171.52-25.84Q171.39-25.09 170.38-25.09L170.38-25.09 164.97-25.09 169.19-23.82Q168.88-22.94 167.48-22.98L167.48-22.98Q165.1-21.27 163.48-20.39L163.48-20.39 169.32-20.39 171.83-23.2Q174.68-21.31 176.44-19.86L176.44-19.86Q176.22-19.12 175.21-19.12L175.21-19.12 165.1-19.12 169.37-18.28Q169.23-17.62 167.78-17.49L167.78-17.49Q170.95-14.77 178.95-13.67ZM157.5-5.45L157.5-5.45 157.98-5.71Q162.11-4.48 162.69-2.15L162.69-2.15Q163.04-0.66 161.81 0.13L161.81 0.13Q160.49 1.01 159.08-0.26L159.08-0.26Q159.08-2.64 157.5-5.45ZM139.31-5.84L139.31-5.84 139.83-6.11Q143.61-5.01 143.96-2.94L143.96-2.94Q144.18-1.63 143-1.01L143-1.01Q141.77-0.4 140.63-1.49L140.63-1.49Q140.67-3.69 139.31-5.84Z" transform="translate(-1.3600000143051147, 38.630001068115234)"></path></g> <!----> <!----> <!----> <!----> <!----> <!----> <!----></g></g> <g data-gra="path-slogan" fill-rule="" class="tp-slogan iconsvg-slogansvg" fill="#133359" transform="translate(5,47.67000198364258)"><rect x="0" height="1" y="3.2300000190734863" width="40.869998931884766"></rect> <rect height="1" y="3.2300000190734863" width="40.869998931884766" x="126.71999740600586"></rect> <g transform="translate(43.869998931884766,0)"><g transform="scale(1)"><path d="M3.67 0L0.78 0L0.78-7.15L3.71-7.15Q6.60-6.99 6.72-3.67L6.72-3.67Q6.56-0.08 3.67 0L3.67 0ZM3.55-6.37L1.76-6.37L1.76-0.82L3.63-0.82Q5.66-0.94 5.74-3.59L5.74-3.59Q5.70-6.29 3.55-6.37L3.55-6.37ZM12.66 0L11.95-2.07L9.06-2.07L8.32 0L7.34 0L10.04-7.15L11.13-7.15L13.71 0L12.66 0ZM10.51-6.09L9.38-2.93L11.60-2.93L10.55-6.09L10.51-6.09ZM14.57-7.15L15.55-7.15L15.55-0.86L19.18-0.86L19.18 0L14.57 0L14.57-7.15ZM20.27-7.15L21.25-7.15L21.25 0L20.27 0L20.27-7.15ZM27.62 0L26.91-2.07L24.02-2.07L23.28 0L22.30 0L25-7.15L26.09-7.15L28.67 0L27.62 0ZM25.47-6.09L24.34-2.93L26.56-2.93L25.51-6.09L25.47-6.09ZM30.70-7.15L34.30-1.37L34.30-7.15L35.23-7.15L35.23 0L34.14 0L30.51-5.78L30.47-5.78L30.47 0L29.53 0L29.53-7.15L30.70-7.15ZM46.37-7.15L46.37 0L45.43 0L45.43-4.22Q45.43-4.80 45.43-6.02L45.43-6.02L43.40 0L42.42 0L40.43-6.02L40.39-6.02Q40.39-5.59 40.43-4.73L40.43-4.73Q40.43-4.30 40.43-4.22L40.43-4.22L40.43 0L39.45 0L39.45-7.15L40.86-7.15L42.93-1.09L44.96-7.15L46.37-7.15ZM47.93-7.15L48.91-7.15L48.91 0L47.93 0L47.93-7.15ZM51.72-7.15L55.31-1.37L55.31-7.15L56.25-7.15L56.25 0L55.16 0L51.52-5.78L51.48-5.78L51.48 0L50.55 0L50.55-7.15L51.72-7.15ZM63.09-3.01L60.90-3.01L60.90-3.83L64.02-3.83L64.02 0L63.40 0L63.16-0.90Q62.34 0.08 60.82 0.12L60.82 0.12Q59.38 0.12 58.59-0.63L58.59-0.63Q57.42-1.72 57.46-3.63L57.46-3.63Q57.73-7.19 60.86-7.34L60.86-7.34Q63.52-7.19 63.91-5L63.91-5L62.97-5Q62.58-6.48 60.82-6.52L60.82-6.52Q58.59-6.37 58.48-3.59L58.48-3.59Q58.48-0.63 60.86-0.63L60.86-0.63Q61.72-0.63 62.34-1.09L62.34-1.09Q63.13-1.72 63.09-3.01L63.09-3.01ZM71.13-7.15L68.71-3.67L71.25 0L70.04 0L68.09-2.93L66.13 0L64.96 0L67.54-3.67L65.12-7.15L66.33-7.15L68.13-4.41L69.96-7.15L71.13-7.15ZM72.30-7.15L73.28-7.15L73.28 0L72.30 0L72.30-7.15ZM76.09-7.15L79.69-1.37L79.69-7.15L80.63-7.15L80.63 0L79.53 0L75.90-5.78L75.86-5.78L75.86 0L74.92 0L74.92-7.15L76.09-7.15Z" transform="translate(-0.78125, 7.34375)"></path></g></g></g></g></g><defs v-gra="od"></defs></svg>